PathFileType	4	(X/Y/Z)	/Users/itak/Documents/Research/Walk-IL/dataset/trc/00491_00167.trc
DataRate	CameraRate	NumFrames	NumMarkers	Units	OrigDataRate	OrigDataStartFrame	OrigNumFrames
100.000000	100.000000	4	53	mm	100.000000	0	552
Frame#	Time	RPSI			LPSI			L3			STRN			T10			C7			CLAV			RBAK			LBAK			LSHO			LUPA			LAEL			LAOL			LWTS			LWPS			LFRA			LIFD			LHPS			LHTS			RSHO			RUPA			RAEL			RAOL			RWTS			RWPS			RFRA			RIFD			RHTS			RHPS			RBHD			LFHD			RFHD			LBHD			LHIP			RHIP			RASI			LASI			LKNE			LTHI			LANK			LTIP			LTOE			LMT1			LMT5			LHEE			RKNE			RTHI			RANK			RTIP			RTOE			RMT1			RMT5			RHEE			
		X1	Y1	Z1	X2	Y2	Z2	X3	Y3	Z3	X4	Y4	Z4	X5	Y5	Z5	X6	Y6	Z6	X7	Y7	Z7	X8	Y8	Z8	X9	Y9	Z9	X10	Y10	Z10	X11	Y11	Z11	X12	Y12	Z12	X13	Y13	Z13	X14	Y14	Z14	X15	Y15	Z15	X16	Y16	Z16	X17	Y17	Z17	X18	Y18	Z18	X19	Y19	Z19	X20	Y20	Z20	X21	Y21	Z21	X22	Y22	Z22	X23	Y23	Z23	X24	Y24	Z24	X25	Y25	Z25	X26	Y26	Z26	X27	Y27	Z27	X28	Y28	Z28	X29	Y29	Z29	X30	Y30	Z30	X31	Y31	Z31	X32	Y32	Z32	X33	Y33	Z33	X34	Y34	Z34	X35	Y35	Z35	X36	Y36	Z36	X37	Y37	Z37	X38	Y38	Z38	X39	Y39	Z39	X40	Y40	Z40	X41	Y41	Z41	X42	Y42	Z42	X43	Y43	Z43	X44	Y44	Z44	X45	Y45	Z45	X46	Y46	Z46	X47	Y47	Z47	X48	Y48	Z48	X49	Y49	Z49	X50	Y50	Z50	X51	Y51	Z51	X52	Y52	Z52	X53	Y53	Z53	

1	0	-1648.568481445312	958.6073608398438	-421.8321533203125	-1560.178100585938	958.5264282226562	-531.413330078125	-1606.173706054688	1052.456665039062	-459.1441345214844	-1383.514404296875	1258.38427734375	-323.8324279785156	-1623.025390625	1176.049194335938	-474.0943908691406	-1580.981567382812	1446.549072265625	-435.9241638183594	-1414.285278320312	1369.055297851562	-351.8446350097656	-1681.262817382812	1328.254272460938	-383.13720703125	-1556.722412109375	1395.049560546875	-537.1878051757812	-1429.009521484375	1418.036499023438	-554.0318603515625	-1383.686401367188	1297.999145507812	-640.6962280273438	-1341.853759765625	1082.598999023438	-653.516845703125	-1442.21337890625	1064.9169921875	-633.2093505859375	-1285.89013671875	881.0919189453125	-575.3031616210938	-1299.532592773438	866.1083374023438	-647.299072265625	-1316.033081054688	995.9829711914062	-651.6646728515625	-1274.5	719.0332641601562	-578.2517700195312	-1289.214965820312	788.3369140625	-643.5335083007812	-1265.87353515625	795.6572875976562	-575.2600708007812	-1601.95849609375	1421.431030273438	-261.5110168457031	-1652.921875	1361.394409179688	-202.1287384033203	-1665.618408203125	1073.665649414062	-141.0862884521484	-1696.440307617188	1056.5263671875	-198.9917602539062	-1555.649047851562	866.5728759765625	-142.6933746337891	-1638.088134765625	853.4439697265625	-113.1927337646484	-1666.243041992188	1015.504455566406	-129.5602569580078	-1558.166748046875	710.406982421875	-135.5383148193359	-1546.9921875	769.2196044921875	-127.1250228881836	-1622.573974609375	765.0753784179688	-110.6934356689453	-1557.449584960938	1646.3447265625	-325.7873840332031	-1364.263549804688	1669.778076171875	-399.8940734863281	-1427.65283203125	1671.687622070312	-285.0573425292969	-1486.426391601562	1646.843017578125	-489.0724792480469	-1381.03173828125	863.9371948242188	-543.7537231445312	-1642.389770507812	860.1882934570312	-240.8545684814453	-1520.688232421875	904.1840209960938	-224.3896026611328	-1349.669067382812	900.1656494140625	-420.0353698730469	-1415.138061523438	447.6698608398438	-531.50146484375	-1375.349609375	598.3513793945312	-524.9266967773438	-1487.615966796875	44.41788864135742	-584.1563720703125	-1419.251586914062	302.6078796386719	-555.2503051757812	-1335.098388671875	45.34739685058594	-394.660888671875	-1414.386352539062	51.66835021972656	-415.3704528808594	-1351.174194335938	47.14905548095703	-510.1215209960938	-1559.387084960938	47.20508575439453	-554.698486328125	-1597.864868164062	469.8665161132812	-240.9849243164062	-1613.372192382812	727.7496337890625	-203.3970947265625	-1664.573608398438	41.69369125366211	-280.2976379394531	-1609.306884765625	325.7312316894531	-235.6316986083984	-1457.614379882812	48.08003234863281	-198.2151184082031	-1491.987182617188	55.42198944091797	-263.3799133300781	-1568.224731445312	46.54587936401367	-185.0789489746094	-1691.500366210938	34.22555160522461	-355.1182556152344	
2	0.01	-1648.409912109375	958.51611328125	-422.2900695800781	-1559.95703125	958.4452514648438	-531.7815551757812	-1606.047119140625	1052.353393554688	-459.6173095703125	-1383.462646484375	1258.3994140625	-324.1202697753906	-1622.88916015625	1176.001220703125	-474.5401611328125	-1580.869506835938	1446.619506835938	-436.4453430175781	-1414.202392578125	1369.056884765625	-352.1732788085938	-1681.1396484375	1328.198608398438	-383.5827026367188	-1556.56982421875	1395.045776367188	-537.6758422851562	-1428.810546875	1418.060302734375	-554.4066772460938	-1383.22509765625	1298.066162109375	-640.9026489257812	-1341.133544921875	1082.66455078125	-653.5487060546875	-1441.538208007812	1064.800537109375	-633.4819946289062	-1285.13037109375	881.2678833007812	-575.0100708007812	-1298.557373046875	866.1752319335938	-646.9561157226562	-1315.203369140625	995.9943237304688	-651.551025390625	-1273.733764648438	719.1043701171875	-577.7293701171875	-1288.145751953125	788.458251953125	-643.027587890625	-1264.84423828125	795.86181640625	-574.7024536132812	-1601.865966796875	1421.500244140625	-262.0086059570312	-1652.721435546875	1361.485107421875	-202.509765625	-1665.189697265625	1073.975830078125	-140.7497863769531	-1695.994140625	1056.626586914062	-198.6356506347656	-1555.048706054688	866.9916381835938	-142.0117492675781	-1637.468994140625	853.8616943359375	-112.3686370849609	-1665.7451171875	1015.8359375	-129.1166839599609	-1557.3955078125	710.8347778320312	-134.2689514160156	-1546.261596679688	769.6953735351562	-126.0842666625977	-1621.849853515625	765.5350341796875	-109.5943984985352	-1557.19482421875	1646.401489257812	-326.0250549316406	-1363.952392578125	1669.652465820312	-400.192626953125	-1427.351684570312	1671.560913085938	-285.3085632324219	-1486.455078125	1647.038696289062	-489.4236145019531	-1380.797607421875	863.9305419921875	-543.9066162109375	-1642.629150390625	860.1775512695312	-241.2810668945312	-1520.84423828125	904.1856689453125	-224.6812438964844	-1349.49755859375	900.2053833007812	-420.142822265625	-1414.760986328125	447.6825561523438	-531.4701538085938	-1375.097045898438	598.3671264648438	-524.8341674804688	-1487.604248046875	44.41665267944336	-584.1541748046875	-1419.044921875	302.4771728515625	-555.273681640625	-1335.112060546875	45.33656311035156	-394.6363525390625	-1414.3935546875	51.65147018432617	-415.3419799804688	-1351.197998046875	47.16342544555664	-510.115478515625	-1559.389404296875	47.22258758544922	-554.7193603515625	-1597.7958984375	469.8724365234375	-241.0523681640625	-1613.587280273438	727.7987060546875	-203.7432708740234	-1664.591552734375	41.68539047241211	-280.3122863769531	-1609.27880859375	325.7046813964844	-235.6996154785156	-1457.644897460938	48.07950973510742	-198.2263336181641	-1492.00390625	55.43231201171875	-263.3834228515625	-1568.23388671875	46.55054092407227	-185.0832366943359	-1691.564453125	34.25310134887695	-355.1626281738281	
3	0.02	-1648.203857421875	958.400146484375	-422.8422241210938	-1559.670776367188	958.3550415039062	-532.2276611328125	-1605.881713867188	1052.242309570312	-460.1843566894531	-1383.400756835938	1258.418212890625	-324.4710083007812	-1622.7294921875	1175.951049804688	-475.1040344238281	-1580.725341796875	1446.6943359375	-437.0786743164062	-1414.105834960938	1369.058837890625	-352.5667114257812	-1680.990478515625	1328.129028320312	-384.1366271972656	-1556.36474609375	1395.027954101562	-538.2569580078125	-1428.5625	1418.07568359375	-554.84912109375	-1382.642700195312	1298.113159179688	-641.121337890625	-1340.212524414062	1082.716186523438	-653.540283203125	-1440.657470703125	1064.644165039062	-633.78564453125	-1284.186889648438	881.4581298828125	-574.58349609375	-1297.318115234375	866.2474365234375	-646.4984741210938	-1314.138916015625	995.995849609375	-651.350830078125	-1272.781127929688	719.180908203125	-577.033447265625	-1286.817993164062	788.5867919921875	-642.3875732421875	-1263.669677734375	796.0853271484375	-573.9900512695312	-1601.775024414062	1421.576904296875	-262.60888671875	-1652.503662109375	1361.597778320312	-202.9792327880859	-1664.668823242188	1074.342407226562	-140.3615417480469	-1695.45556640625	1056.75244140625	-198.2171936035156	-1554.272338867188	867.5233764648438	-141.1321105957031	-1636.68017578125	854.3724365234375	-111.367790222168	-1665.132934570312	1016.2314453125	-128.5894012451172	-1556.362182617188	711.38720703125	-132.6474761962891	-1545.307250976562	770.308349609375	-124.7410507202148	-1620.905517578125	766.1038818359375	-108.2286834716797	-1556.87255859375	1646.457885742188	-326.3104248046875	-1363.592041015625	1669.505859375	-400.548095703125	-1426.989624023438	1671.396362304688	-285.60546875	-1486.416381835938	1647.258911132812	-489.8208923339844	-1380.501220703125	863.92041015625	-544.0938720703125	-1642.87109375	860.1614379882812	-241.7808074951172	-1521.018920898438	904.1861572265625	-225.0538177490234	-1349.30712890625	900.2416381835938	-420.27685546875	-1414.346557617188	447.6836242675781	-531.4530639648438	-1374.814331054688	598.3692626953125	-524.7651977539062	-1487.591064453125	44.41164398193359	-584.1572875976562	-1418.824096679688	302.3264465332031	-555.3049926757812	-1335.130126953125	45.32698440551758	-394.6126708984375	-1414.406372070312	51.63436508178711	-415.3112182617188	-1351.22607421875	47.18233871459961	-510.1109313964844	-1559.389404296875	47.23502731323242	-554.7463989257812	-1597.70751953125	469.8794250488281	-241.1359405517578	-1613.793701171875	727.8455810546875	-204.1602172851562	-1664.619140625	41.66777038574219	-280.3229370117188	-1609.245971679688	325.6724243164062	-235.7758331298828	-1457.681518554688	48.08256912231445	-198.2430419921875	-1492.02880859375	55.44601058959961	-263.3882751464844	-1568.244140625	46.5551643371582	-185.087890625	-1691.6298828125	34.25924682617188	-355.2049865722656	
4	0.03	-1647.958862304688	958.26416015625	-423.4539794921875	-1559.331298828125	958.2666015625	-532.7236938476562	-1605.681884765625	1052.13427734375	-460.8092041015625	-1383.33203125	1258.439331054688	-324.86328125	-1622.55859375	1175.905883789062	-475.7610473632812	-1580.55517578125	1446.763305664062	-437.7869262695312	-1414.004150390625	1369.06005859375	-352.9976196289062	-1680.827392578125	1328.048706054688	-384.7747802734375	-1556.110595703125	1394.991333007812	-538.8961791992188	-1428.276611328125	1418.075561523438	-555.3291015625	-1381.961181640625	1298.120239257812	-641.3272094726562	-1339.12255859375	1082.737670898438	-653.4680786132812	-1439.602416992188	1064.451538085938	-634.0927124023438	-1283.108154296875	881.641357421875	-574.0166015625	-1295.863403320312	866.3154296875	-645.9287109375	-1312.878173828125	995.9822998046875	-651.0469360351562	-1271.683837890625	719.2546997070312	-576.1776733398438	-1285.292602539062	788.7061767578125	-641.6309814453125	-1262.437866210938	796.3041381835938	-573.1427612304688	-1601.69921875	1421.652954101562	-263.2785034179688	-1652.296997070312	1361.725830078125	-203.5154724121094	-1664.086669921875	1074.738403320312	-139.9543304443359	-1694.854248046875	1056.888793945312	-197.7713623046875	-1553.340209960938	868.1492309570312	-140.080810546875	-1635.746337890625	854.9483032226562	-110.2470245361328	-1664.437866210938	1016.662780761719	-128.0164184570312	-1555.075561523438	712.0475463867188	-130.7341156005859	-1544.148315429688	771.0398559570312	-123.1383514404297	-1619.761474609375	766.754150390625	-106.6612243652344	-1556.496215820312	1646.505126953125	-326.6237487792969	-1363.206665039062	1669.344360351562	-400.9387512207031	-1426.586059570312	1671.196655273438	-285.932373046875	-1486.296630859375	1647.484985351562	-490.2308654785156	-1380.151733398438	863.9070434570312	-544.3060913085938	-1643.084228515625	860.1397705078125	-242.3210906982422	-1521.194213867188	904.1853637695312	-225.4923400878906	-1349.113403320312	900.2669677734375	-420.4324951171875	-1413.938720703125	447.6685791015625	-531.4651489257812	-1374.528686523438	598.351806640625	-524.7440185546875	-1487.576782226562	44.40043258666992	-584.1687622070312	-1418.617309570312	302.1654968261719	-555.3490600585938	-1335.153198242188	45.32165908813477	-394.5933837890625	-1414.425537109375	51.6199951171875	-415.28271484375	-1351.255615234375	47.20405960083008	-510.1087951660156	-1559.388671875	47.24045562744141	-554.7808227539062	-1597.60400390625	469.8870849609375	-241.2299957275391	-1613.94873046875	727.8817749023438	-204.6169738769531	-1664.657348632812	41.63931274414062	-280.3277893066406	-1609.211181640625	325.6363525390625	-235.853515625	-1457.72314453125	48.09086227416992	-198.2640533447266	-1492.0615234375	55.46201705932617	-263.3945922851562	-1568.25537109375	46.55918121337891	-185.0923004150391	-1691.69287109375	34.23701477050781	-355.2404479980469	
